# xmcd CD database file
#
# Track frame offsets:
#	150
#	25197
#	52796
#	74169
#	87675
#	112931
#	136415
#	166345
#	184238
#	212679
#	237266
#	247450
#	264405
#
# Disc length: 3862 seconds
#
# Revision: 0
# Processed by: cddbd v1.4PL0 Copyright (c) Steve Scherf et al.
# Submitted via: CDex 1.50
#
DISCID=c00f140d
DTITLE=Leadfoot Rivet - bluesmaniac
DYEAR=1998
DGENRE=Blues
TTITLE0=sweet bedtime music
TTITLE1=you're a fool to yourself
TTITLE2=world of trouble
TTITLE3=she caught the Katy
TTITLE4=thermo king
TTITLE5=sittin' on top of the world
TTITLE6=the things that I used to do
TTITLE7=check that hip shake!
TTITLE8=can't stand no more heartaches
TTITLE9=next to a brand new cadillac
TTITLE10=windhill blues
TTITLE11=handle with care
TTITLE12=ooh poo pah doo
EXTD=YEAR: 1998
EXTT0=
EXTT1=
EXTT2=
EXTT3=
EXTT4=
EXTT5=
EXTT6=
EXTT7=
EXTT8=
EXTT9=
EXTT10=
EXTT11=
EXTT12=
PLAYORDER=
